<?xml version="1.0" encoding="UTF-8" standalone="no"?>
<!DOCTYPE svg PUBLIC "-//W3C//DTD SVG 1.1//EN"
 "http://www.w3.org/Graphics/SVG/1.1/DTD/svg11.dtd">
<!-- Generated by graphviz version 2.43.0 (0)
 -->
<!-- Title: G Pages: 1 -->
<svg width="342pt" height="175pt"
 viewBox="0.00 0.00 342.40 175.40" xmlns="http://www.w3.org/2000/svg" xmlns:xlink="http://www.w3.org/1999/xlink">
<g id="graph0" class="graph" transform="scale(1 1) rotate(0) translate(7.2 168.2)">
<title>G</title>
<polygon fill="white" stroke="transparent" points="-7.2,7.2 -7.2,-168.2 335.2,-168.2 335.2,7.2 -7.2,7.2"/>
<text text-anchor="middle" x="164" y="-6.6" font-family="Times,serif" font-size="8.00">Test rmw&#45;1, Generic(Linux&#45;kernel memory consistency model)</text>
<!-- proc0_label_node -->
<g id="node1" class="node">
<title>proc0_label_node</title>
<text text-anchor="middle" x="47" y="-149.1" font-family="Times,serif" font-size="8.00">Thread 0</text>
</g>
<!-- eiid0 -->
<g id="node2" class="node">
<title>eiid0</title>
<text text-anchor="middle" x="164" y="-149.1" font-family="Times,serif" font-size="8.00">a: R*[once][x]=0</text>
</g>
<!-- eiid1 -->
<g id="node3" class="node">
<title>eiid1</title>
<text text-anchor="middle" x="151" y="-23.6" font-family="Times,serif" font-size="8.00">b: W*[once][x]=1</text>
</g>
<!-- eiid0&#45;&gt;eiid1 -->
<g id="edge1" class="edge">
<title>eiid0&#45;&gt;eiid1</title>
<path fill="none" stroke="red" d="M160.1,-142.2C155.21,-131.92 147.07,-113.12 144,-96 140.74,-77.79 143.85,-56.6 146.9,-42.45"/>
<polygon fill="red" stroke="red" points="149.72,-42.7 148.82,-34.27 144.26,-41.41 149.72,-42.7"/>
<text text-anchor="middle" x="153" y="-85.6" font-family="Times,serif" font-size="8.00" fill="#000000">Rmw</text>
</g>
<!-- eiid2 -->
<g id="node5" class="node">
<title>eiid2</title>
<text text-anchor="middle" x="219" y="-85.6" font-family="Times,serif" font-size="8.00">c: W[once][x]=2</text>
</g>
<!-- eiid0&#45;&gt;eiid2 -->
<g id="edge2" class="edge">
<title>eiid0&#45;&gt;eiid2</title>
<path fill="none" stroke="#ffa040" d="M170.74,-142.46C179.65,-132.5 195.5,-114.78 206.6,-102.37"/>
<polygon fill="#ffa040" stroke="#ffa040" points="208.95,-103.93 212.2,-96.1 204.78,-100.2 208.95,-103.93"/>
<text text-anchor="middle" x="197.5" y="-116.6" font-family="Times,serif" font-size="8.00" fill="#ffa040">fr</text>
</g>
<!-- proc1_label_node -->
<g id="node4" class="node">
<title>proc1_label_node</title>
<text text-anchor="middle" x="281" y="-149.1" font-family="Times,serif" font-size="8.00">Thread 1</text>
</g>
<!-- eiid2&#45;&gt;eiid1 -->
<g id="edge3" class="edge">
<title>eiid2&#45;&gt;eiid1</title>
<path fill="none" stroke="blue" d="M210.39,-78.9C199.21,-69.04 179.52,-51.67 165.9,-39.64"/>
<polygon fill="blue" stroke="blue" points="167.61,-37.42 159.76,-34.23 163.9,-41.62 167.61,-37.42"/>
<text text-anchor="middle" x="193" y="-54.6" font-family="Times,serif" font-size="8.00" fill="blue">co</text>
</g>
</g>
</svg>
