<?xml version="1.0" encoding="UTF-8" standalone="no"?>
<!DOCTYPE svg PUBLIC "-//W3C//DTD SVG 1.1//EN"
 "http://www.w3.org/Graphics/SVG/1.1/DTD/svg11.dtd">
<!-- Generated by graphviz version 2.43.0 (0)
 -->
<!-- Title: G Pages: 1 -->
<svg width="468pt" height="331pt"
 viewBox="0.00 0.00 468.00 331.22" xmlns="http://www.w3.org/2000/svg" xmlns:xlink="http://www.w3.org/1999/xlink">
<g id="graph0" class="graph" transform="scale(1 1) rotate(0) translate(4 327.22)">
<title>G</title>
<polygon fill="white" stroke="transparent" points="-4,4 -4,-327.22 464,-327.22 464,4 -4,4"/>
<text text-anchor="middle" x="230" y="-7.8" font-family="Times,serif" font-size="14.00">Test scpv&#45;rf, Generic(Linux&#45;kernel memory consistency model)</text>
<g id="clust1" class="cluster">
<title>cluster_proc0</title>
<polygon fill="none" stroke="gray" points="8,-31 8,-228.48 210,-228.48 210,-31 8,-31"/>
<text text-anchor="middle" x="109" y="-213.28" font-family="Times,serif" font-size="14.00">Thread 0</text>
</g>
<g id="clust2" class="cluster">
<title>cluster_proc1</title>
<polygon fill="none" stroke="gray" points="230,-31 230,-228.48 452,-228.48 452,-31 230,-31"/>
<text text-anchor="middle" x="341" y="-213.28" font-family="Times,serif" font-size="14.00">Thread 1</text>
</g>
<!-- eiid4 -->
<g id="node1" class="node">
<title>eiid4</title>
<ellipse fill="none" stroke="blue" cx="109" cy="-296.35" rx="51.74" ry="26.74"/>
<text text-anchor="start" x="80.5" y="-300.15" font-family="Times,serif" font-size="14.00">e: W[x]=0</text>
<text text-anchor="middle" x="109" y="-285.15" font-family="Times,serif" font-size="14.00">Init</text>
</g>
<!-- eiid0 -->
<g id="node2" class="node">
<title>eiid0</title>
<ellipse fill="none" stroke="blue" cx="109" cy="-170.61" rx="93.18" ry="26.74"/>
<text text-anchor="start" x="51" y="-174.41" font-family="Times,serif" font-size="14.00">a: W[once][x]=2</text>
<text text-anchor="middle" x="109" y="-159.41" font-family="Times,serif" font-size="14.00">__store{once}(*x,2);</text>
</g>
<!-- eiid4&#45;&gt;eiid0 -->
<g id="edge6" class="edge">
<title>eiid4&#45;&gt;eiid0</title>
<path fill="none" stroke="blue" d="M109,-269.41C109,-251.51 109,-227.47 109,-207.7"/>
<polygon fill="blue" stroke="blue" points="112.5,-207.52 109,-197.52 105.5,-207.52 112.5,-207.52"/>
<text text-anchor="middle" x="115.5" y="-240.28" font-family="Times,serif" font-size="14.00" fill="blue">co</text>
</g>
<!-- eiid1 -->
<g id="node3" class="node">
<title>eiid1</title>
<ellipse fill="none" stroke="blue" cx="109" cy="-65.87" rx="93.18" ry="26.74"/>
<text text-anchor="start" x="51" y="-69.67" font-family="Times,serif" font-size="14.00">b: W[once][x]=3</text>
<text text-anchor="middle" x="109" y="-54.67" font-family="Times,serif" font-size="14.00">__store{once}(*x,3);</text>
</g>
<!-- eiid0&#45;&gt;eiid1 -->
<g id="edge5" class="edge">
<title>eiid0&#45;&gt;eiid1</title>
<path fill="none" stroke="blue" d="M109,-143.68C109,-131.4 109,-116.51 109,-103.12"/>
<polygon fill="blue" stroke="blue" points="112.5,-102.79 109,-92.79 105.5,-102.79 112.5,-102.79"/>
<text text-anchor="middle" x="115.5" y="-114.54" font-family="Times,serif" font-size="14.00" fill="blue">co</text>
</g>
<!-- eiid3 -->
<g id="node5" class="node">
<title>eiid3</title>
<ellipse fill="none" stroke="blue" cx="341" cy="-65.87" rx="103.48" ry="26.74"/>
<text text-anchor="start" x="276" y="-69.67" font-family="Times,serif" font-size="14.00">d: R[once][x]=2 (data)</text>
<text text-anchor="middle" x="341" y="-54.67" font-family="Times,serif" font-size="14.00">r2 = __load{once}(*x);</text>
</g>
<!-- eiid0&#45;&gt;eiid3 -->
<g id="edge3" class="edge">
<title>eiid0&#45;&gt;eiid3</title>
<path fill="none" stroke="red" d="M145.92,-145.64C164.63,-134.13 188,-120.71 210,-110.74 227.22,-102.94 246.26,-95.78 264.36,-89.61"/>
<polygon fill="red" stroke="red" points="265.64,-92.87 274.01,-86.38 263.42,-86.23 265.64,-92.87"/>
<text text-anchor="middle" x="215" y="-114.54" font-family="Times,serif" font-size="14.00" fill="red">rf</text>
</g>
<!-- eiid2 -->
<g id="node4" class="node">
<title>eiid2</title>
<ellipse fill="none" stroke="blue" cx="341" cy="-170.61" rx="103.48" ry="26.74"/>
<text text-anchor="start" x="276" y="-174.41" font-family="Times,serif" font-size="14.00">c: R[once][x]=3 (data)</text>
<text text-anchor="middle" x="341" y="-159.41" font-family="Times,serif" font-size="14.00">r1 = __load{once}(*x);</text>
</g>
<!-- eiid1&#45;&gt;eiid2 -->
<g id="edge2" class="edge">
<title>eiid1&#45;&gt;eiid2</title>
<path fill="none" stroke="red" d="M165.91,-87.27C184.58,-94.31 205.33,-102.51 224,-110.74 245.29,-120.13 268.25,-131.42 288.15,-141.59"/>
<polygon fill="red" stroke="red" points="286.57,-144.71 297.06,-146.17 289.77,-138.48 286.57,-144.71"/>
<text text-anchor="middle" x="258" y="-114.54" font-family="Times,serif" font-size="14.00" fill="red">rf</text>
</g>
<!-- eiid2&#45;&gt;eiid3 -->
<g id="edge1" class="edge">
<title>eiid2&#45;&gt;eiid3</title>
<path fill="none" stroke="black" d="M341,-143.68C341,-131.4 341,-116.51 341,-103.12"/>
<polygon fill="black" stroke="black" points="344.5,-102.79 341,-92.79 337.5,-102.79 344.5,-102.79"/>
<text text-anchor="middle" x="348" y="-114.54" font-family="Times,serif" font-size="14.00">po</text>
</g>
<!-- eiid3&#45;&gt;eiid1 -->
<g id="edge4" class="edge">
<title>eiid3&#45;&gt;eiid1</title>
<path fill="none" stroke="#ffa040" d="M237.57,-65.87C229.23,-65.87 220.81,-65.87 212.47,-65.87"/>
<polygon fill="#ffa040" stroke="#ffa040" points="212.36,-62.37 202.36,-65.87 212.36,-69.37 212.36,-62.37"/>
<text text-anchor="middle" x="220.05" y="-72.67" font-family="Times,serif" font-size="14.00" fill="#ffa040">fr</text>
</g>
</g>
</svg>
