<?xml version="1.0" encoding="UTF-8" standalone="no"?>
<!DOCTYPE svg PUBLIC "-//W3C//DTD SVG 1.1//EN"
 "http://www.w3.org/Graphics/SVG/1.1/DTD/svg11.dtd">
<!-- Generated by graphviz version 2.43.0 (0)
 -->
<!-- Title: %3 Pages: 1 -->
<svg width="164pt" height="289pt"
 viewBox="0.00 0.00 163.85 289.09" xmlns="http://www.w3.org/2000/svg" xmlns:xlink="http://www.w3.org/1999/xlink">
<g id="graph0" class="graph" transform="scale(1 1) rotate(0) translate(7.2 281.89)">
<title>%3</title>
<polygon fill="white" stroke="transparent" points="-7.2,7.2 -7.2,-281.89 156.65,-281.89 156.65,7.2 -7.2,7.2"/>
<!-- W2 -->
<g id="node1" class="node">
<title>W2</title>
<ellipse fill="none" stroke="black" cx="89.45" cy="-253.24" rx="21.4" ry="21.4"/>
<text text-anchor="middle" x="89.45" y="-249.54" font-family="Monospace" font-size="14.00">W2</text>
</g>
<!-- W3 -->
<g id="node2" class="node">
<title>W3</title>
<ellipse fill="none" stroke="black" cx="21.45" cy="-137.34" rx="21.4" ry="21.4"/>
<text text-anchor="middle" x="21.45" y="-133.64" font-family="Monospace" font-size="14.00">W3</text>
</g>
<!-- W2&#45;&gt;W3 -->
<g id="edge1" class="edge">
<title>W2&#45;&gt;W3</title>
<path fill="none" stroke="black" d="M78.82,-234.44C67.71,-215.83 50.14,-186.4 37.37,-165.01"/>
<polygon fill="black" stroke="black" points="40.35,-163.18 32.22,-156.39 34.34,-166.77 40.35,-163.18"/>
<text text-anchor="middle" x="68.95" y="-191.59" font-family="Monospace" font-size="14.00">co</text>
</g>
<!-- W1 -->
<g id="node3" class="node">
<title>W1</title>
<ellipse fill="none" stroke="black" cx="89.45" cy="-21.45" rx="21.4" ry="21.4"/>
<text text-anchor="middle" x="89.45" y="-17.75" font-family="Monospace" font-size="14.00">W1</text>
</g>
<!-- W3&#45;&gt;W1 -->
<g id="edge2" class="edge">
<title>W3&#45;&gt;W1</title>
<path fill="none" stroke="black" d="M32.07,-118.55C43.19,-99.93 60.76,-70.51 73.53,-49.12"/>
<polygon fill="black" stroke="black" points="76.55,-50.88 78.67,-40.5 70.54,-47.29 76.55,-50.88"/>
<text text-anchor="middle" x="68.95" y="-75.7" font-family="Monospace" font-size="14.00">co</text>
</g>
<!-- W1&#45;&gt;W2 -->
<g id="edge3" class="edge">
<title>W1&#45;&gt;W2</title>
<path fill="none" stroke="black" d="M90.47,-43.13C90.86,-51.99 91.26,-62.45 91.45,-71.9 92.62,-130.06 92.62,-144.63 91.45,-202.79 91.33,-208.85 91.12,-215.31 90.88,-221.51"/>
<polygon fill="black" stroke="black" points="87.38,-221.42 90.47,-231.56 94.38,-221.71 87.38,-221.42"/>
<text text-anchor="middle" x="120.45" y="-133.64" font-family="Monospace" font-size="14.00"> po&#45;loc</text>
</g>
</g>
</svg>
