<?xml version="1.0" encoding="UTF-8" standalone="no"?>
<!DOCTYPE svg PUBLIC "-//W3C//DTD SVG 1.1//EN"
 "http://www.w3.org/Graphics/SVG/1.1/DTD/svg11.dtd">
<!-- Generated by graphviz version 2.43.0 (0)
 -->
<!-- Title: %3 Pages: 1 -->
<svg width="138pt" height="187pt"
 viewBox="0.00 0.00 137.92 187.19" xmlns="http://www.w3.org/2000/svg" xmlns:xlink="http://www.w3.org/1999/xlink">
<g id="graph0" class="graph" transform="scale(1 1) rotate(0) translate(7.2 179.99)">
<title>%3</title>
<polygon fill="white" stroke="transparent" points="-7.2,7.2 -7.2,-179.99 130.72,-179.99 130.72,7.2 -7.2,7.2"/>
<!-- W2 -->
<g id="node1" class="node">
<title>W2</title>
<ellipse fill="none" stroke="black" cx="56.52" cy="-151.34" rx="21.4" ry="21.4"/>
<text text-anchor="middle" x="56.52" y="-147.64" font-family="Monospace" font-size="14.00">W2</text>
</g>
<!-- W1 -->
<g id="node2" class="node">
<title>W1</title>
<ellipse fill="none" stroke="black" cx="56.52" cy="-21.45" rx="21.4" ry="21.4"/>
<text text-anchor="middle" x="56.52" y="-17.75" font-family="Monospace" font-size="14.00">W1</text>
</g>
<!-- W2&#45;&gt;W1 -->
<g id="edge1" class="edge">
<title>W2&#45;&gt;W1</title>
<path fill="none" stroke="black" d="M39.26,-138.21C26.42,-128.05 9.89,-112.27 2.52,-93.9 -5.84,-73.06 12.4,-53 29.9,-39.47"/>
<polygon fill="black" stroke="black" points="32.27,-42.08 38.31,-33.38 28.16,-36.41 32.27,-42.08"/>
<text text-anchor="middle" x="11.02" y="-82.7" font-family="Monospace" font-size="14.00">co</text>
</g>
<!-- W1&#45;&gt;W2 -->
<g id="edge2" class="edge">
<title>W1&#45;&gt;W2</title>
<path fill="none" stroke="black" d="M56.52,-42.95C56.52,-63.62 56.52,-95.8 56.52,-119.55"/>
<polygon fill="black" stroke="black" points="53.02,-119.8 56.52,-129.8 60.02,-119.8 53.02,-119.8"/>
<text text-anchor="middle" x="90.02" y="-82.7" font-family="Monospace" font-size="14.00"> &#160;po&#45;loc</text>
</g>
</g>
</svg>
